# xmcd CD database file
#
# Track frame offsets:
#	150
#	10010
#	18663
#	26540
#	35890
#	48145
#	54658
#	62028
#	72660
#	80685
#	89873
#	98123
#	104415
#	113193
#	119243
#	128990
#	135250
#	144768
#	154340
#	162203
#	174630
#	182043
#	188928
#	197240
#	204738
#	213638
#	218970
#	230383
#	241375
#	247805
#
# Disc length: 3428 seconds
#
# Revision: 4
# Processed by: cddbd v1.5.1PL0 Copyright (c) Steve Scherf et al.
# Submitted via: CDex 1.51
#
DISCID=c30d621e
DTITLE=Various Artist - たのしい英語のうた ベスト60 [CD1]
DYEAR=1900
DGENRE=Vocal
TTITLE0=The Alphabet
TTITLE1=Bingo
TTITLE2=How Do You Do?
TTITLE3=Good Morning To You
TTITLE4=Are You Sleeping?
TTITLE5=This Is The Way
TTITLE6=Mary Had A Little Lamb
TTITLE7=Baa Baa Black Sheep
TTITLE8=Lavender's Blue, Dilly, Dilly
TTITLE9=Come Birds
TTITLE10=Two Little Dicky Birds
TTITLE11=Six Little Ducks
TTITLE12=One Elephant Went Out To Play
TTITLE13=Incy Wincy Spider
TTITLE14=Rain Rain Go Away ・There Is Thunder
TTITLE15=One, Two, Three, Four, Five
TTITLE16=There Were Ten In The Bed
TTITLE17=Ten Fat Sausages
TTITLE18=I'm A Little Teapot
TTITLE19=Polly Put The Kettle On
TTITLE20=Rub-A-Dub-Dub
TTITLE21=This Little Pig Went To Market
TTITLE22=The Muffin Man
TTITLE23=Pat-A-Cake Pat-A-Cake
TTITLE24=Sing A Song Of Sixpence
TTITLE25=Georgy Porgy
TTITLE26=Ding, Dong Bell
TTITLE27=Three Little Kittens
TTITLE28=I Had A Little Nut Tree
TTITLE29=Rock-A-Bye, Baby
EXTD=
EXTT0=
EXTT1=
EXTT2=
EXTT3=
EXTT4=
EXTT5=
EXTT6=
EXTT7=
EXTT8=
EXTT9=
EXTT10=
EXTT11=
EXTT12=
EXTT13=
EXTT14=
EXTT15=
EXTT16=
EXTT17=
EXTT18=
EXTT19=
EXTT20=
EXTT21=
EXTT22=
EXTT23=
EXTT24=
EXTT25=
EXTT26=
EXTT27=
EXTT28=
EXTT29=
PLAYORDER=
